<svg width="17" height="16" viewBox="0 0 17 16" fill="none" xmlns="http://www.w3.org/2000/svg">
<path d="M10.75 12.3125C10.4375 12.5938 9.96875 12.5938 9.6875 12.2812C9.46875 12.0312 9.0625 11.75 8.5 11.75C7.90625 11.75 7.5 12.0312 7.28125 12.2812C7 12.5938 6.53125 12.5938 6.21875 12.3125C5.90625 12.0312 5.90625 11.5625 6.1875 11.25C6.625 10.7812 7.40625 10.25 8.5 10.25C9.5625 10.25 10.3438 10.7812 10.7812 11.25C11.0625 11.5625 11.0625 12.0312 10.75 12.3125ZM5 7.5C5 7.25 5.09375 7 5.28125 6.8125L4.3125 6.5C4.0625 6.40625 3.9375 6.125 4 5.84375C4.09375 5.59375 4.375 5.4375 4.65625 5.53125L7.65625 6.53125C7.90625 6.625 8.03125 6.90625 7.96875 7.1875C7.875 7.4375 7.59375 7.5625 7.3125 7.5L7 7.375C7 7.40625 7 7.46875 7 7.5C7 8.0625 6.5625 8.5 6 8.5C5.4375 8.5 5 8.0625 5 7.5ZM12 7.5C12 8.0625 11.5625 8.5 11 8.5C10.4375 8.5 10 8.0625 10 7.5C10 7.46875 10 7.40625 10 7.375L9.65625 7.5C9.375 7.5625 9.09375 7.4375 9 7.1875C8.9375 6.90625 9.0625 6.625 9.3125 6.53125L12.3125 5.53125C12.5938 5.4375 12.875 5.59375 12.9688 5.84375C13.0312 6.125 12.9062 6.40625 12.6562 6.5L11.6875 6.8125C11.875 6.96875 12 7.25 12 7.5ZM0.5 8C0.5 3.59375 4.0625 0 8.5 0C12.9062 0 16.5 3.59375 16.5 8C16.5 12.4375 12.9062 16 8.5 16C4.0625 16 0.5 12.4375 0.5 8ZM8.5 14.5C12.0625 14.5 15 11.5938 15 8C15 4.4375 12.0625 1.5 8.5 1.5C4.90625 1.5 2 4.4375 2 8C2 11.5938 4.90625 14.5 8.5 14.5Z" fill="#FF0412"/>
</svg>
