<svg width="16" height="16" viewBox="0 0 16 16" fill="none" xmlns="http://www.w3.org/2000/svg">
<path d="M10.25 12.3125C9.9375 12.5938 9.46875 12.5938 9.1875 12.2812C8.96875 12.0312 8.5625 11.75 8 11.75C7.40625 11.75 7 12.0312 6.78125 12.2812C6.5 12.5938 6.03125 12.5938 5.71875 12.3125C5.40625 12.0312 5.40625 11.5625 5.6875 11.25C6.125 10.7812 6.90625 10.25 8 10.25C9.0625 10.25 9.84375 10.7812 10.2812 11.25C10.5625 11.5625 10.5625 12.0312 10.25 12.3125ZM4.5 7.5C4.5 7.25 4.59375 7 4.78125 6.8125L3.8125 6.5C3.5625 6.40625 3.4375 6.125 3.5 5.84375C3.59375 5.59375 3.875 5.4375 4.15625 5.53125L7.15625 6.53125C7.40625 6.625 7.53125 6.90625 7.46875 7.1875C7.375 7.4375 7.09375 7.5625 6.8125 7.5L6.5 7.375C6.5 7.40625 6.5 7.46875 6.5 7.5C6.5 8.0625 6.0625 8.5 5.5 8.5C4.9375 8.5 4.5 8.0625 4.5 7.5ZM11.5 7.5C11.5 8.0625 11.0625 8.5 10.5 8.5C9.9375 8.5 9.5 8.0625 9.5 7.5C9.5 7.46875 9.5 7.40625 9.5 7.375L9.15625 7.5C8.875 7.5625 8.59375 7.4375 8.5 7.1875C8.4375 6.90625 8.5625 6.625 8.8125 6.53125L11.8125 5.53125C12.0938 5.4375 12.375 5.59375 12.4688 5.84375C12.5312 6.125 12.4062 6.40625 12.1562 6.5L11.1875 6.8125C11.375 6.96875 11.5 7.25 11.5 7.5ZM0 8C0 3.59375 3.5625 0 8 0C12.4062 0 16 3.59375 16 8C16 12.4375 12.4062 16 8 16C3.5625 16 0 12.4375 0 8ZM8 14.5C11.5625 14.5 14.5 11.5938 14.5 8C14.5 4.4375 11.5625 1.5 8 1.5C4.40625 1.5 1.5 4.4375 1.5 8C1.5 11.5938 4.40625 14.5 8 14.5Z" fill="white"/>
</svg>
