<svg width="16" height="16" viewBox="0 0 16 16" fill="none" xmlns="http://www.w3.org/2000/svg">
<path d="M6.21875 5.25L7.40625 5.40625C7.5 5.40625 7.59375 5.46875 7.625 5.5625C7.65625 5.65625 7.625 5.75 7.5625 5.8125L6.6875 6.65625L6.90625 7.84375C6.9375 7.9375 6.875 8.03125 6.8125 8.09375C6.71875 8.15625 6.625 8.15625 6.53125 8.09375L5.46875 7.53125L4.4375 8.09375C4.34375 8.15625 4.25 8.15625 4.15625 8.09375C4.09375 8.03125 4.03125 7.9375 4.0625 7.84375L4.28125 6.65625L3.40625 5.8125C3.34375 5.75 3.3125 5.65625 3.34375 5.5625C3.375 5.46875 3.46875 5.40625 3.5625 5.40625L4.75 5.25L5.25 4.15625C5.3125 4.0625 5.375 4 5.46875 4C5.59375 4 5.65625 4.0625 5.71875 4.15625L6.21875 5.25ZM11.2188 5.25L12.4062 5.40625C12.5 5.40625 12.5938 5.46875 12.625 5.5625C12.6562 5.65625 12.625 5.75 12.5625 5.8125L11.6875 6.65625L11.9062 7.84375C11.9375 7.9375 11.875 8.03125 11.8125 8.09375C11.7188 8.15625 11.625 8.15625 11.5312 8.09375L10.5 7.53125L9.4375 8.09375C9.34375 8.15625 9.25 8.15625 9.15625 8.09375C9.09375 8.03125 9.03125 7.9375 9.0625 7.84375L9.28125 6.65625L8.40625 5.8125C8.34375 5.75 8.3125 5.65625 8.34375 5.5625C8.375 5.46875 8.46875 5.40625 8.5625 5.40625L9.75 5.25L10.25 4.15625C10.3125 4.0625 10.375 4 10.5 4C10.5938 4 10.6562 4.0625 10.7188 4.15625L11.2188 5.25ZM10.9062 9.65625C11.5 9.5 12.0312 10.0312 11.6875 10.5312C10.9375 11.7188 9.5625 12.5 7.96875 12.5C6.40625 12.5 5.03125 11.7188 4.25 10.5312C3.9375 10.0312 4.46875 9.5 5.0625 9.65625C5.96875 9.875 6.9375 9.96875 7.96875 9.96875C9.03125 9.96875 10 9.875 10.9062 9.65625ZM0 8C0 3.59375 3.5625 0 8 0C12.4062 0 16 3.59375 16 8C16 12.4375 12.4062 16 8 16C3.5625 16 0 12.4375 0 8ZM8 14.5C11.5625 14.5 14.5 11.5938 14.5 8C14.5 4.4375 11.5625 1.5 8 1.5C4.40625 1.5 1.5 4.4375 1.5 8C1.5 11.5938 4.40625 14.5 8 14.5Z" fill="#00BA5C"/>
</svg>
