<svg width="15" height="15" viewBox="0 0 15 15" fill="none" xmlns="http://www.w3.org/2000/svg">
<path d="M5.94141 5.34375L6.98047 5.48047C7.0625 5.48047 7.14453 5.53516 7.17188 5.61719C7.19922 5.69922 7.17188 5.78125 7.11719 5.83594L6.35156 6.57422L6.54297 7.61328C6.57031 7.69531 6.51562 7.77734 6.46094 7.83203C6.37891 7.88672 6.29688 7.88672 6.21484 7.83203L5.28516 7.33984L4.38281 7.83203C4.30078 7.88672 4.21875 7.88672 4.13672 7.83203C4.08203 7.77734 4.02734 7.69531 4.05469 7.61328L4.24609 6.57422L3.48047 5.83594C3.42578 5.78125 3.39844 5.69922 3.42578 5.61719C3.45312 5.53516 3.53516 5.48047 3.61719 5.48047L4.65625 5.34375L5.09375 4.38672C5.14844 4.30469 5.20312 4.25 5.28516 4.25C5.39453 4.25 5.44922 4.30469 5.50391 4.38672L5.94141 5.34375ZM10.3164 5.34375L11.3555 5.48047C11.4375 5.48047 11.5195 5.53516 11.5469 5.61719C11.5742 5.69922 11.5469 5.78125 11.4922 5.83594L10.7266 6.57422L10.918 7.61328C10.9453 7.69531 10.8906 7.77734 10.8359 7.83203C10.7539 7.88672 10.6719 7.88672 10.5898 7.83203L9.6875 7.33984L8.75781 7.83203C8.67578 7.88672 8.59375 7.88672 8.51172 7.83203C8.45703 7.77734 8.40234 7.69531 8.42969 7.61328L8.62109 6.57422L7.85547 5.83594C7.80078 5.78125 7.77344 5.69922 7.80078 5.61719C7.82812 5.53516 7.91016 5.48047 7.99219 5.48047L9.03125 5.34375L9.46875 4.38672C9.52344 4.30469 9.57812 4.25 9.6875 4.25C9.76953 4.25 9.82422 4.30469 9.87891 4.38672L10.3164 5.34375ZM10.043 9.19922C10.5625 9.0625 11.0273 9.52734 10.7266 9.96484C10.0703 11.0039 8.86719 11.6875 7.47266 11.6875C6.10547 11.6875 4.90234 11.0039 4.21875 9.96484C3.94531 9.52734 4.41016 9.0625 4.92969 9.19922C5.72266 9.39062 6.57031 9.47266 7.47266 9.47266C8.40234 9.47266 9.25 9.39062 10.043 9.19922ZM0.5 7.75C0.5 3.89453 3.61719 0.75 7.5 0.75C11.3555 0.75 14.5 3.89453 14.5 7.75C14.5 11.6328 11.3555 14.75 7.5 14.75C3.61719 14.75 0.5 11.6328 0.5 7.75ZM7.5 13.4375C10.6172 13.4375 13.1875 10.8945 13.1875 7.75C13.1875 4.63281 10.6172 2.0625 7.5 2.0625C4.35547 2.0625 1.8125 4.63281 1.8125 7.75C1.8125 10.8945 4.35547 13.4375 7.5 13.4375Z" fill="white"/>
</svg>
