<svg width="16" height="16" viewBox="0 0 16 16" fill="none" xmlns="http://www.w3.org/2000/svg">
<path d="M10.9062 9.65625C11.5 9.5 12.0312 10.0312 11.6875 10.5312C10.9375 11.7188 9.5625 12.5 7.96875 12.5C6.40625 12.5 5.03125 11.7188 4.25 10.5312C3.9375 10.0312 4.46875 9.5 5.0625 9.65625C5.96875 9.875 6.9375 9.96875 7.96875 9.96875C9.03125 9.96875 10 9.875 10.9062 9.65625ZM7 6C7 7.125 6.53125 8 6 8C5.4375 8 5 7.125 5 6C5 4.90625 5.4375 4 6 4C6.53125 4 7 4.90625 7 6ZM9 6C9 4.90625 9.4375 4 10 4C10.5312 4 11 4.90625 11 6C11 7.125 10.5312 8 10 8C9.4375 8 9 7.125 9 6ZM16 8C16 12.4375 12.4062 16 8 16C3.5625 16 0 12.4375 0 8C0 3.59375 3.5625 0 8 0C12.4062 0 16 3.59375 16 8ZM8 1.5C4.40625 1.5 1.5 4.4375 1.5 8C1.5 11.5938 4.40625 14.5 8 14.5C11.5625 14.5 14.5 11.5938 14.5 8C14.5 4.4375 11.5625 1.5 8 1.5Z" fill="white"/>
</svg>
