<svg width="17" height="16" viewBox="0 0 17 16" fill="none" xmlns="http://www.w3.org/2000/svg">
<path d="M11.4062 9.65625C12 9.5 12.5312 10.0312 12.1875 10.5312C11.4375 11.7188 10.0625 12.5 8.46875 12.5C6.90625 12.5 5.53125 11.7188 4.75 10.5312C4.4375 10.0312 4.96875 9.5 5.5625 9.65625C6.46875 9.875 7.4375 9.96875 8.46875 9.96875C9.53125 9.96875 10.5 9.875 11.4062 9.65625ZM7.5 6C7.5 7.125 7.03125 8 6.5 8C5.9375 8 5.5 7.125 5.5 6C5.5 4.90625 5.9375 4 6.5 4C7.03125 4 7.5 4.90625 7.5 6ZM9.5 6C9.5 4.90625 9.9375 4 10.5 4C11.0312 4 11.5 4.90625 11.5 6C11.5 7.125 11.0312 8 10.5 8C9.9375 8 9.5 7.125 9.5 6ZM16.5 8C16.5 12.4375 12.9062 16 8.5 16C4.0625 16 0.5 12.4375 0.5 8C0.5 3.59375 4.0625 0 8.5 0C12.9062 0 16.5 3.59375 16.5 8ZM8.5 1.5C4.90625 1.5 2 4.4375 2 8C2 11.5938 4.90625 14.5 8.5 14.5C12.0625 14.5 15 11.5938 15 8C15 4.4375 12.0625 1.5 8.5 1.5Z" fill="#FFB416"/>
</svg>
