<svg width="16" height="16" viewBox="0 0 16 16" fill="none" xmlns="http://www.w3.org/2000/svg">
<path d="M10.9062 9.65625C11.5 9.5 12.0312 10.0312 11.6875 10.5312C10.9375 11.7188 9.5625 12.5 7.96875 12.5C6.40625 12.5 5.03125 11.7188 4.25 10.5312C3.9375 10.0312 4.46875 9.5 5.0625 9.65625C5.96875 9.875 6.9375 9.96875 7.96875 9.96875C9.03125 9.96875 10 9.875 10.9062 9.65625ZM7.4375 5.5625L6.90625 7.59375C6.84375 7.875 6.5625 8.03125 6.28125 7.96875L4.25 7.40625C3.6875 7.28125 3.375 6.6875 3.53125 6.15625C3.65625 5.59375 4.25 5.25 4.78125 5.40625L5.3125 5.53125L5.4375 5.03125C5.59375 4.46875 6.15625 4.15625 6.71875 4.3125C7.28125 4.4375 7.59375 5.03125 7.4375 5.5625ZM10.6562 5.53125L11.1875 5.40625C11.7188 5.25 12.3125 5.59375 12.4375 6.15625C12.5938 6.6875 12.2812 7.28125 11.7188 7.40625L9.6875 7.96875C9.40625 8.03125 9.125 7.875 9.0625 7.59375L8.53125 5.5625C8.375 5.03125 8.6875 4.4375 9.25 4.3125C9.8125 4.15625 10.375 4.46875 10.5312 5.03125L10.6562 5.53125ZM16 8C16 12.4375 12.4062 16 8 16C3.5625 16 0 12.4375 0 8C0 3.59375 3.5625 0 8 0C12.4062 0 16 3.59375 16 8ZM8 1.5C4.40625 1.5 1.5 4.4375 1.5 8C1.5 11.5938 4.40625 14.5 8 14.5C11.5625 14.5 14.5 11.5938 14.5 8C14.5 4.4375 11.5625 1.5 8 1.5Z" fill="white"/>
</svg>
