<svg width="17" height="16" viewBox="0 0 17 16" fill="none" xmlns="http://www.w3.org/2000/svg">
<path d="M11.4062 9.65625C12 9.5 12.5312 10.0312 12.1875 10.5312C11.4375 11.7188 10.0625 12.5 8.46875 12.5C6.90625 12.5 5.53125 11.7188 4.75 10.5312C4.4375 10.0312 4.96875 9.5 5.5625 9.65625C6.46875 9.875 7.4375 9.96875 8.46875 9.96875C9.53125 9.96875 10.5 9.875 11.4062 9.65625ZM7.9375 5.5625L7.40625 7.59375C7.34375 7.875 7.0625 8.03125 6.78125 7.96875L4.75 7.40625C4.1875 7.28125 3.875 6.6875 4.03125 6.15625C4.15625 5.59375 4.75 5.25 5.28125 5.40625L5.8125 5.53125L5.9375 5.03125C6.09375 4.46875 6.65625 4.15625 7.21875 4.3125C7.78125 4.4375 8.09375 5.03125 7.9375 5.5625ZM11.1562 5.53125L11.6875 5.40625C12.2188 5.25 12.8125 5.59375 12.9375 6.15625C13.0938 6.6875 12.7812 7.28125 12.2188 7.40625L10.1875 7.96875C9.90625 8.03125 9.625 7.875 9.5625 7.59375L9.03125 5.5625C8.875 5.03125 9.1875 4.4375 9.75 4.3125C10.3125 4.15625 10.875 4.46875 11.0312 5.03125L11.1562 5.53125ZM16.5 8C16.5 12.4375 12.9062 16 8.5 16C4.0625 16 0.5 12.4375 0.5 8C0.5 3.59375 4.0625 0 8.5 0C12.9062 0 16.5 3.59375 16.5 8ZM8.5 1.5C4.90625 1.5 2 4.4375 2 8C2 11.5938 4.90625 14.5 8.5 14.5C12.0625 14.5 15 11.5938 15 8C15 4.4375 12.0625 1.5 8.5 1.5Z" fill="#1C9AF4"/>
</svg>
