<svg width="17" height="16" viewBox="0 0 17 16" fill="none" xmlns="http://www.w3.org/2000/svg">
<path d="M5 6.5C5 5.96875 5.4375 5.5 6 5.5C6.5625 5.5 7 5.96875 7 6.5C7 7.0625 6.5625 7.5 6 7.5C5.4375 7.5 5 7.0625 5 6.5ZM12 6.5C12 7.0625 11.5625 7.5 11 7.5C10.4375 7.5 10 7.0625 10 6.5C10 5.96875 10.4375 5.5 11 5.5C11.5625 5.5 12 5.96875 12 6.5ZM10.75 10.25C11.1562 10.25 11.5 10.5938 11.5 11C11.5 11.4375 11.1562 11.75 10.75 11.75H6.25C5.8125 11.75 5.5 11.4375 5.5 11C5.5 10.5938 5.8125 10.25 6.25 10.25H10.75ZM16.5 8C16.5 12.4375 12.9062 16 8.5 16C4.0625 16 0.5 12.4375 0.5 8C0.5 3.59375 4.0625 0 8.5 0C12.9062 0 16.5 3.59375 16.5 8ZM8.5 14.5C12.0625 14.5 15 11.5938 15 8C15 4.4375 12.0625 1.5 8.5 1.5C4.90625 1.5 2 4.4375 2 8C2 11.5938 4.90625 14.5 8.5 14.5Z" fill="#FF6700"/>
</svg>
