<svg width="16" height="16" viewBox="0 0 16 16" fill="none" xmlns="http://www.w3.org/2000/svg">
<path d="M7.67322 1.125C7.72108 1.12503 7.76781 1.13904 7.80798 1.16504C7.84822 1.19115 7.88022 1.22867 7.89978 1.27246L7.90076 1.27441L9.75134 5.37012L9.87244 5.63867L10.1674 5.66211L14.4427 6.00195C14.4915 6.00588 14.5379 6.02462 14.5765 6.05469C14.5958 6.06971 14.6133 6.08675 14.6273 6.10645L14.6595 6.17188C14.6912 6.26693 14.6642 6.3704 14.5902 6.4375L11.1888 9.49902L10.9564 9.70801L11.0424 10.0088L12.4135 14.8057V14.8066C12.4274 14.8559 12.4263 14.9086 12.4095 14.957C12.3928 15.0054 12.3611 15.048 12.3197 15.0781C12.2785 15.108 12.229 15.1248 12.1781 15.126C12.1269 15.1271 12.0762 15.1123 12.0336 15.084H12.0345L7.95056 12.3623L7.67322 12.1768L7.39587 12.3623L3.31189 15.084V15.085C3.27023 15.1128 3.22041 15.1273 3.17029 15.127C3.12042 15.1265 3.07171 15.1113 3.03064 15.083C2.98941 15.0545 2.95791 15.0135 2.93982 14.9668C2.93082 14.9435 2.92495 14.9192 2.92322 14.8945L2.92908 14.8203L4.04626 9.98145L4.10974 9.70703L3.90857 9.51074L0.748413 6.43066C0.71407 6.39718 0.689843 6.35436 0.679077 6.30762C0.668325 6.2608 0.671541 6.21119 0.687866 6.16602C0.70421 6.12096 0.733734 6.0818 0.771851 6.05273C0.810029 6.02364 0.855834 6.00574 0.903687 6.00195L5.17908 5.66211L5.474 5.63867L5.59509 5.37012L7.44568 1.27344L7.44666 1.27148C7.46628 1.22792 7.49834 1.19101 7.53845 1.16504C7.57866 1.13907 7.62534 1.12497 7.67322 1.125Z" stroke="#FFBB00"/>
</svg>
