<svg width="16" height="16" viewBox="0 0 16 16" fill="none" xmlns="http://www.w3.org/2000/svg">
<path d="M15.7873 6.01073C15.7402 5.87187 15.6534 5.74987 15.5377 5.65977C15.422 5.56967 15.2825 5.51542 15.1363 5.50373L10.8605 5.16398L9.0103 1.06823C8.95137 0.93631 8.85553 0.824267 8.73433 0.745619C8.61313 0.666971 8.47177 0.625079 8.32729 0.625C8.18281 0.624921 8.0414 0.666657 7.92011 0.745172C7.79883 0.823687 7.70287 0.935625 7.6438 1.06748L5.79355 5.16398L1.5178 5.50373C1.37414 5.51511 1.2368 5.56763 1.12221 5.65502C1.00763 5.74241 0.920641 5.86097 0.871666 5.9965C0.822691 6.13203 0.813799 6.2788 0.846055 6.41925C0.87831 6.55971 0.950347 6.68789 1.05355 6.78848L4.2133 9.86873L3.0958 14.7077C3.06186 14.8542 3.07274 15.0075 3.12701 15.1477C3.18128 15.2879 3.27644 15.4086 3.40015 15.4941C3.52385 15.5795 3.67039 15.6258 3.82073 15.627C3.97108 15.6281 4.1183 15.584 4.2433 15.5005L8.32705 12.778L12.4108 15.5005C12.5385 15.5853 12.6892 15.629 12.8425 15.6256C12.9958 15.6222 13.1444 15.572 13.2683 15.4817C13.3923 15.3913 13.4855 15.2652 13.5356 15.1203C13.5857 14.9753 13.5902 14.8185 13.5485 14.671L12.1768 9.87098L15.5788 6.80948C15.8015 6.60848 15.8833 6.29498 15.7873 6.01073Z" fill="#FFBB00"/>
</svg>
